<svg width="2114" height="1365" viewBox="0 0 2114 1365" fill="none" xmlns="http://www.w3.org/2000/svg">
<g filter="url(#filter0_d_22_8)">
<path fill-rule="evenodd" clip-rule="evenodd" d="M20.2522 39.021C20.2522 51.132 20.1402 61.378 20.0022 61.791C19.8642 62.204 26.2772 62.639 34.2522 62.759C113.911 63.956 175.019 105.593 237.666 201.359C247.744 216.765 268.585 249.908 279.261 267.507C282.943 273.576 291.031 286.866 297.236 297.041C306.779 312.692 332.715 355.971 350.271 385.541C396.844 463.987 474.811 601.584 567.006 768.041C568.377 770.516 577.382 786.716 587.017 804.041C596.652 821.366 605.65 837.566 607.012 840.041C612.056 849.203 652.746 921.917 658.774 932.541C662.207 938.591 666.26 945.791 667.782 948.541C678.665 968.213 726.452 1052.07 748.987 1091.04C779.103 1143.12 816.109 1205.39 842.878 1249.01C852.506 1264.7 860.916 1278.42 861.567 1279.5C870.413 1294.1 876.524 1302.28 877.596 1300.95C877.98 1300.48 890.215 1279.91 893.09 1274.91C894.154 1273.06 899.209 1264.34 904.324 1255.54C909.438 1246.74 914.342 1238.19 915.222 1236.54C916.102 1234.89 918.671 1230.39 920.931 1226.54C923.191 1222.69 930.349 1210.32 936.837 1199.04C943.325 1187.77 948.918 1178.32 949.266 1178.04C949.613 1177.77 950.196 1176.74 950.559 1175.75C950.923 1174.76 955.57 1166.44 960.885 1157.25C966.2 1148.06 971.432 1138.97 972.512 1137.04C973.591 1135.12 977.012 1129.15 980.113 1123.79C983.215 1118.43 986.696 1112.36 987.849 1110.29C989.002 1108.23 994.361 1098.89 999.758 1089.54C1005.15 1080.19 1014.45 1063.99 1020.4 1053.54C1026.36 1043.09 1031.67 1033.87 1032.2 1033.04C1033.98 1030.27 1039.55 1020.59 1042.55 1015.04C1044.19 1012.02 1046.05 1008.87 1046.67 1008.04C1047.3 1007.22 1048.77 1004.74 1049.93 1002.54C1051.1 1000.34 1053.07 996.741 1054.32 994.541C1062.43 980.214 1065.25 974.875 1065.25 973.87C1065.25 973.242 1061.27 966.603 1056.41 959.119C1044.93 941.463 1031.26 918.813 1008.96 880.541C1005.12 873.941 1000.53 866.066 998.767 863.041C997.004 860.016 992.637 852.591 989.064 846.541C985.491 840.491 978.63 828.791 973.816 820.541C969.002 812.291 961.337 799.241 956.782 791.541C952.227 783.841 944.545 770.791 939.711 762.541C921.117 730.811 918.359 726.113 910.055 712.041C905.35 704.066 897.662 691.016 892.971 683.041C888.28 675.066 874.647 651.891 862.676 631.541C850.705 611.191 839.482 592.066 837.736 589.041C835.99 586.016 831.651 578.591 828.093 572.541C824.535 566.491 812.266 545.566 800.828 526.041C789.39 506.516 778.119 487.391 775.78 483.541C773.442 479.691 763.755 463.266 754.253 447.041C744.751 430.816 733.269 411.241 728.736 403.541C708.661 369.439 669.813 303.261 668.212 300.44C667.245 298.734 664.455 294.009 662.013 289.94C659.571 285.87 652.715 274.216 646.777 264.041C640.839 253.866 634.744 243.516 633.232 241.041C631.721 238.566 625.654 228.216 619.752 218.041C613.85 207.866 607.782 197.516 606.268 195.041C604.754 192.566 600.233 184.916 596.223 178.041C566.146 126.486 564.155 123.599 539.752 96.19C535.329 91.223 515.948 74.28 506.752 67.343C475.806 43.997 442.698 28.283 407.615 20.291L395.752 17.588L208.002 17.294L20.2522 17V39.021ZM727.252 37.899V58.756L738.502 59.453C771.858 61.52 798.036 68.343 825.673 82.173C858.194 98.446 889.373 124.707 916.127 158.36C939.796 188.131 957.803 216.984 991.875 279.734C1017.85 327.569 1033.85 356.209 1034.7 356.383C1035.12 356.47 1039.46 350.016 1044.34 342.041C1056.37 322.376 1056.53 322.114 1066.7 304.784C1071.63 296.401 1077.75 286.166 1080.3 282.041C1082.86 277.916 1088.24 268.916 1092.26 262.041C1100.78 247.455 1107.77 236.045 1109.22 234.333C1109.79 233.669 1110.25 232.808 1110.25 232.421C1110.25 232.033 1111.53 229.652 1113.09 227.129C1120.68 214.859 1132.25 195.226 1132.25 194.629C1132.25 194.259 1132.72 193.413 1133.29 192.749C1134.79 190.998 1142.25 179.222 1142.25 178.602C1142.25 178.313 1144.12 175.031 1146.4 171.309C1148.69 167.586 1151.39 163.079 1152.4 161.291C1156.82 153.534 1158.49 150.721 1167.37 136.04C1182.24 111.478 1193.67 92.277 1194.74 90.072C1196.5 86.445 1197.11 87.047 1204.99 100.27C1212.96 113.647 1239.39 158.574 1247.22 172.041C1250.9 178.366 1260.36 194.566 1268.24 208.041C1276.13 221.516 1285.58 237.716 1289.25 244.041C1292.91 250.366 1304.6 270.391 1315.21 288.541C1325.83 306.691 1336.87 325.591 1339.73 330.541C1342.6 335.491 1355.08 356.866 1367.46 378.041C1379.84 399.216 1392.45 420.816 1395.48 426.041C1398.5 431.266 1422.02 471.541 1447.73 515.541C1473.44 559.541 1506.65 616.466 1521.52 642.041C1536.4 667.616 1549.13 689.151 1549.8 689.896C1550.81 691.003 1552.08 689.533 1556.7 681.896C1559.82 676.751 1565.54 667.366 1569.41 661.041C1573.28 654.716 1577.69 647.291 1579.21 644.541C1580.73 641.791 1587.29 630.541 1593.8 619.541C1600.3 608.541 1606.56 597.885 1607.69 595.862C1608.82 593.838 1612.07 588.213 1614.9 583.362C1617.74 578.51 1620.93 572.966 1622 571.041C1625.7 564.41 1652.54 517.509 1661.78 501.541C1666.88 492.741 1672.03 483.741 1673.25 481.541C1676.97 474.775 1685.39 459.964 1690.44 451.26C1693.09 446.706 1695.25 442.764 1695.25 442.499C1695.25 442.235 1697.5 438.429 1700.25 434.041C1703 429.653 1705.25 425.853 1705.25 425.596C1705.25 425.339 1706.66 422.747 1708.39 419.835C1710.11 416.923 1713.41 411.166 1715.73 407.041C1720.7 398.182 1740.83 363.205 1742.2 361.041C1742.73 360.216 1745.73 355.041 1748.88 349.541C1752.02 344.041 1757.05 335.521 1760.05 330.607C1763.04 325.693 1766.27 320.293 1767.23 318.607C1768.18 316.921 1774.54 306.211 1781.36 294.809C1788.17 283.406 1794.62 272.606 1795.68 270.809C1799.32 264.626 1824.55 223.535 1827.77 218.541C1829.54 215.791 1834.8 207.466 1839.47 200.041C1844.13 192.616 1850.77 182.041 1854.23 176.541C1861.75 164.578 1868.31 154.73 1869.23 154.041C1869.59 153.766 1871.71 151.066 1873.92 148.041C1878.41 141.916 1899.37 120.47 1906.17 115.041C1908.58 113.116 1911.95 110.367 1913.65 108.932C1923.02 101.053 1953.04 82.7 1955.89 83.118C1956.24 83.169 1956.8 82.789 1957.14 82.272C1958.16 80.706 1980.38 72.227 1990.57 69.513C2006.89 65.17 2016.11 63.885 2035 63.32L2053.25 62.775V39.908V17.041H1868.66C1658.56 17.041 1680.42 16.143 1648.25 26.094C1603.66 39.889 1573.79 57.328 1543.39 87.317C1512.92 117.375 1491.16 149.555 1449.26 226.541C1425.68 269.857 1416.97 284.962 1404.57 304.035C1396.45 316.54 1391.06 324.041 1390.22 324.041C1389.84 324.041 1387.5 320.554 1385 316.291C1369.3 289.447 1351.81 259.588 1344.74 247.541C1328.45 219.803 1324.77 213.497 1323.27 210.753C1322.44 209.22 1316.38 198.87 1309.82 187.753C1303.25 176.637 1294.99 162.591 1291.46 156.541C1287.93 150.491 1282.68 141.491 1279.78 136.541C1272.1 123.396 1249.31 84.505 1236.12 62.041C1229.83 51.316 1221.32 36.81 1217.21 29.806L1209.75 17.071L968.502 17.056L727.252 17.041V37.899Z" fill="#F6F7EF"/>
</g>
<defs>
<filter id="filter0_d_22_8" x="0" y="0" width="2113.25" height="1364.09" filterUnits="userSpaceOnUse" color-interpolation-filters="sRGB">
<feFlood flood-opacity="0" result="BackgroundImageFix"/>
<feColorMatrix in="SourceAlpha" type="matrix" values="0 0 0 0 0 0 0 0 0 0 0 0 0 0 0 0 0 0 127 0" result="hardAlpha"/>
<feOffset dx="20" dy="23"/>
<feGaussianBlur stdDeviation="20"/>
<feComposite in2="hardAlpha" operator="out"/>
<feColorMatrix type="matrix" values="0 0 0 0 0 0 0 0 0 0 0 0 0 0 0 0 0 0 0.68 0"/>
<feBlend mode="normal" in2="BackgroundImageFix" result="effect1_dropShadow_22_8"/>
<feBlend mode="normal" in="SourceGraphic" in2="effect1_dropShadow_22_8" result="shape"/>
</filter>
</defs>
</svg>
